<svg xmlns="http://www.w3.org/2000/svg" width="32px" height="32px"  viewBox="0 0 24 24"><path d="M11.998,19.937c-0.298,0-0.596-0.106-0.833-0.319l-1.883-1.686c-0.299-0.298-0.686-0.458-1.081-0.458
                h-3.64c-0.668,0-1.296-0.26-1.769-0.733s-0.732-1.101-0.731-1.769l0.006-8.41c0.001-1.377,1.123-2.498,2.5-2.498h14.872
                c1.378,0,2.5,1.122,2.5,2.5v8.41c0,1.378-1.122,2.5-2.5,2.5H15.79c-0.402,0-0.779,0.157-1.062,0.441l-1.894,1.702
                C12.596,19.83,12.297,19.937,11.998,19.937z M4.567,5.063c-0.826,0-1.5,0.672-1.5,1.499l-0.006,8.41
                c0,0.401,0.155,0.778,0.439,1.061c0.283,0.284,0.66,0.44,1.061,0.44h3.64c0.667,0,1.295,0.26,1.768,0.732l1.863,1.667
                c0.095,0.085,0.239,0.085,0.333,0l1.874-1.682c0.445-0.448,1.09-0.716,1.75-0.716h3.649c0.827,0,1.5-0.673,1.5-1.5v-8.41
                c0-0.827-0.673-1.5-1.5-1.5H4.567z"/></svg>