<svg xmlns="http://www.w3.org/2000/svg" width="32px" height="32px"  viewBox="0 0 24 24"><g>
                <path d="M9.624,5.208c-0.57,0.296-0.079,1.124,0.505,0.863c0.509-0.227,1.068-0.286,1.114-0.949
                    c0.029-0.41,0.014-0.811,0.476-0.994c0.517-0.205,0.984,0.2,1.036,0.71c0.047,0.461,0.035,0.821,0.548,1.025
                    c1.236,0.49,2.231,1.192,2.811,2.432c0.37,0.791,0.414,1.614,0.414,2.467c0,0.673,0,1.346,0,2.02c0,0.643,1,0.645,1,0
                    c0-1.646,0.186-3.393-0.521-4.929c-0.594-1.291-1.701-2.292-3.019-2.808c-0.034-0.013-0.155-0.069-0.227-0.092
                    c-0.002-0.021-0.004-0.044-0.005-0.058c-0.013-0.332-0.088-0.656-0.257-0.945c-0.312-0.534-0.894-0.878-1.514-0.874
                    c-0.684,0.004-1.315,0.423-1.589,1.046c-0.112,0.254-0.15,0.516-0.154,0.792c0,0.011-0.002,0.032-0.003,0.052
                    C10.24,4.965,9.808,5.112,9.624,5.208z"/>
                <path d="M4.57,3.865c-0.46-0.46-1.17,0.25-0.71,0.7c1.06,1.06,2.12,2.13,3.18,3.19
                    c-0.37,0.75-0.57,1.59-0.57,2.44v4.54c-1.06,0.12-1.88,1.02-1.88,2.11v0.53c0,1.17,0.95,2.12,2.12,2.12h3.59
                    c0.13,0.81,0.85,1.43,1.7,1.43s1.56-0.62,1.7-1.43h3.59c0.41,0,0.81-0.12,1.15-0.34c0.33,0.33,0.66,0.66,0.99,0.99
                    c0.46,0.46,1.17-0.25,0.71-0.71L4.57,3.865z M17.7,18.415c-0.13,0.05-0.27,0.08-0.41,0.08H6.71c-0.62,0-1.12-0.5-1.12-1.12v-0.53
                    c0-0.62,0.5-1.12,1.12-1.12c0.42,0,0.76-0.34,0.76-0.77v-4.76c0-0.58,0.11-1.15,0.33-1.68L17.7,18.415z"/>
            </g></svg>